<svg xmlns="http://www.w3.org/2000/svg" aria-hidden="true" style="position:absolute;width:0;height:0;overflow:hidden">
  <defs>
    <symbol id="up" viewBox="0 0 48 32">
      <path stroke-linecap="round" stroke-linejoin="round" stroke-width="8" d="M4 26 24 6l20 20" />
    </symbol>
    <symbol id="arrow-45deg" viewBox="0 0 32 32">
      <path
        d="M26.02 3.149a1.882 1.882 0 0 0-2.126-1.602L7.118 3.905a1.883 1.883 0 0 0 .524 3.728l14.912-2.096 2.096 14.912a1.882 1.882 0 1 0 3.728-.524L26.02 3.149zM5.268 31.604l20.391-27.06-3.007-2.266-20.391 27.06 3.007 2.266z" />
    </symbol>
    <symbol id="checked" viewBox="0 0 32 32">
      <path d="m4 12-4 4 12 12L32 8l-4-4-16 16-8-8z" />
    </symbol>
    <symbol id="clock" viewBox="0 0 32 32">
      <path stroke-linecap="round" stroke-linejoin="round" stroke-width="2.4"
        d="M16 29.333c7.364 0 13.333-5.969 13.333-13.333S23.363 2.667 16 2.667C8.636 2.667 2.667 8.637 2.667 16S8.637 29.333 16 29.333z" />
      <path stroke-linecap="round" stroke-linejoin="round" stroke-width="2.4" d="M16 8v8l5.333 2.667" />
    </symbol>
    <symbol id="close" viewBox="0 0 32 32">
      <path
        d="M17.769 15.319 24.7 8.388a1.252 1.252 0 0 0-1.769-1.769L16 13.55 9.069 6.619c-.488-.487-1.281-.487-1.769 0s-.487 1.281 0 1.769l6.931 6.931-6.925 6.925a1.254 1.254 0 0 0 .881 2.138c.318 0 .637-.125.881-.369l6.931-6.931 6.931 6.931c.244.244.563.369.881.369s.637-.125.881-.369a1.252 1.252 0 0 0 0-1.769l-6.925-6.925z" />
    </symbol>
    <symbol id="star" viewBox="0 0 32 32">
      <path stroke-width="2.4"
        d="M12.4 10.394 16 3.572l3.6 6.822a2.2 2.2 0 0 0 1.571 1.141l7.601 1.315-5.376 5.532a2.2 2.2 0 0 0-.6 1.846l1.098 7.635-6.922-3.404a2.199 2.199 0 0 0-1.941 0l-6.922 3.404 1.098-7.635a2.2 2.2 0 0 0-.6-1.846L3.231 12.85l7.601-1.315a2.202 2.202 0 0 0 1.571-1.141z" />
    </symbol>
    <symbol id="heart" viewBox="0 0 32 32">
      <path stroke-linecap="round" stroke-linejoin="round" stroke-width="2.56"
        d="M28.031 5.435a7.639 7.639 0 0 0-8.313-1.654 7.642 7.642 0 0 0-2.475 1.654l-1.47 1.47-1.47-1.47A7.627 7.627 0 1 0 3.515 16.223l12.258 12.258 12.258-12.258a7.639 7.639 0 0 0 1.654-8.313 7.658 7.658 0 0 0-1.654-2.475z" />
    </symbol>
    <symbol id="hide" viewBox="0 0 32 32">
      <path stroke-linecap="round" stroke-linejoin="round" stroke-width="3.2"
        d="M23.92 23.92A13.43 13.43 0 0 1 16 26.667C6.667 26.667 1.333 16 1.333 16A24.605 24.605 0 0 1 8.08 8.08m5.12-2.427a12.161 12.161 0 0 1 2.8-.32C25.333 5.333 30.667 16 30.667 16a24.646 24.646 0 0 1-2.88 4.253m-8.96-1.426a4.003 4.003 0 0 1-5.755.102 4.01 4.01 0 0 1-1.17-2.899 3.999 3.999 0 0 1 1.273-2.855M1.333 1.333l29.333 29.333" />
    </symbol>
    <symbol id="question" viewBox="0 0 32 32">
      <path
        d="M10.667 9.2c0-2.5 1.913-4.533 4.267-4.533h2.133c2.353 0 4.267 2.033 4.267 4.533v.255c0 1.544-.74 2.982-1.96 3.811l-2.813 1.92c-.826.564-1.505 1.34-1.976 2.256s-.717 1.943-.717 2.986v.106c0 1.254.953 2.267 2.133 2.267s2.133-1.013 2.133-2.267v-.099c0-.581.28-1.119.733-1.431l2.813-1.92c2.44-1.672 3.92-4.54 3.92-7.629V9.2c0-5.008-3.82-9.067-8.533-9.067h-2.133c-4.713 0-8.533 4.059-8.533 9.067 0 1.254.953 2.267 2.133 2.267s2.133-1.013 2.133-2.267zM16 31.867c.707 0 1.386-.298 1.886-.83s.781-1.252.781-2.003c0-.752-.281-1.472-.781-2.003s-1.178-.83-1.886-.83-1.386.298-1.886.83c-.5.531-.781 1.252-.781 2.003s.281 1.472.781 2.003 1.178.83 1.886.83z" />
    </symbol>
    <symbol id="show" viewBox="0 0 32 32">
      <path stroke-linecap="round" stroke-linejoin="round" stroke-width="3.2"
        d="M23.92 23.92A13.43 13.43 0 0 1 16 26.667C6.667 26.667 1.333 16 1.333 16A24.605 24.605 0 0 1 8.08 8.08m5.12-2.427a12.161 12.161 0 0 1 2.8-.32C25.333 5.333 30.667 16 30.667 16a24.646 24.646 0 0 1-2.88 4.253m-8.96-1.426a4.003 4.003 0 0 1-5.755.102 3.994 3.994 0 0 1-.824-4.456 4.01 4.01 0 0 1 .927-1.298" />
    </symbol>
    <symbol id="social" viewBox="0 0 32 32">
      <path
        d="m22.357 24.66-.805 3.005L.514 22.028l.805-3.006s1.611-6.011 12.13-3.192 8.908 8.83 8.908 8.83zM20.923 8.975a5.446 5.446 0 1 0-10.522-2.816 5.446 5.446 0 0 0 10.523 2.814zm2.954 9.65a8.272 8.272 0 0 1 1.485 6.84l-.805 3.005 6.011 1.611.805-3.006s1.462-5.455-7.496-8.451zm2.212-13.903a5.275 5.275 0 0 0-3.138.109 7.781 7.781 0 0 1-2.343 8.746 5.279 5.279 0 0 0 2.663 1.664A5.445 5.445 0 0 0 26.09 4.722z" />
    </symbol>
    <symbol id="user" viewBox="0 0 32 32">
      <path d="M16 0a8 8 0 1 1 0 16 8 8 0 0 1 0-16zm0 20c8.84 0 16 3.58 16 8v4H0v-4c0-4.42 7.16-8 16-8z" />
    </symbol>
  </defs>
</svg>