<svg xmlns="http://www.w3.org/2000/svg" aria-hidden="true" style="position:absolute;width:0;height:0;overflow:hidden">
  <defs>
    <symbol id="up" viewBox="0 0 48 32">
      <path stroke-linecap="round" stroke-linejoin="round" stroke-width="8" d="M4 26 24 6l20 20" />
    </symbol>
    <symbol id="arrow-45deg" viewBox="0 0 32 32">
      <path
        d="M26.02 3.149a1.882 1.882 0 0 0-2.126-1.602L7.118 3.905a1.883 1.883 0 0 0 .524 3.728l14.912-2.096 2.096 14.912a1.882 1.882 0 1 0 3.728-.524L26.02 3.149zM5.268 31.604l20.391-27.06-3.007-2.266-20.391 27.06 3.007 2.266z" />
    </symbol>
    <symbol id="checked" viewBox="0 0 32 32">
      <path d="m4 12-4 4 12 12L32 8l-4-4-16 16-8-8z" />
    </symbol>
    <symbol id="clock" viewBox="0 0 32 32">
      <path stroke-linecap="round" stroke-linejoin="round" stroke-width="2.4"
        d="M16 29.333c7.364 0 13.333-5.969 13.333-13.333S23.363 2.667 16 2.667C8.636 2.667 2.667 8.637 2.667 16S8.637 29.333 16 29.333z" />
      <path stroke-linecap="round" stroke-linejoin="round" stroke-width="2.4" d="M16 8v8l5.333 2.667" />
    </symbol>
    <symbol id="close" viewBox="0 0 32 32">
      <path
        d="M17.769 15.319 24.7 8.388a1.252 1.252 0 0 0-1.769-1.769L16 13.55 9.069 6.619c-.488-.487-1.281-.487-1.769 0s-.487 1.281 0 1.769l6.931 6.931-6.925 6.925a1.254 1.254 0 0 0 .881 2.138c.318 0 .637-.125.881-.369l6.931-6.931 6.931 6.931c.244.244.563.369.881.369s.637-.125.881-.369a1.252 1.252 0 0 0 0-1.769l-6.925-6.925z" />
    </symbol>
    <symbol id="star" viewBox="0 0 32 32">
      <path stroke-width="2.4"
        d="M12.4 10.394 16 3.572l3.6 6.822a2.2 2.2 0 0 0 1.571 1.141l7.601 1.315-5.376 5.532a2.2 2.2 0 0 0-.6 1.846l1.098 7.635-6.922-3.404a2.199 2.199 0 0 0-1.941 0l-6.922 3.404 1.098-7.635a2.2 2.2 0 0 0-.6-1.846L3.231 12.85l7.601-1.315a2.202 2.202 0 0 0 1.571-1.141z" />
    </symbol>
    <symbol id="heart" viewBox="0 0 32 32">
      <path stroke-linecap="round" stroke-linejoin="round" stroke-width="2.56"
        d="M28.031 5.435a7.639 7.639 0 0 0-8.313-1.654 7.642 7.642 0 0 0-2.475 1.654l-1.47 1.47-1.47-1.47A7.627 7.627 0 1 0 3.515 16.223l12.258 12.258 12.258-12.258a7.639 7.639 0 0 0 1.654-8.313 7.658 7.658 0 0 0-1.654-2.475z" />
    </symbol>
    <symbol id="hidden" viewBox="0 0 32 32">
      <path
        d="M6.837 5.173 5.289 6.721l19.927 19.927 1.549-1.549L6.838 5.172zM8.559 9.992l1.457 1.457c-1.595 1.358-2.866 3.05-3.687 4.529l-.003.005c2.287 3.823 5.915 7.436 10.493 6.888 1.236-.148 2.389-.57 3.442-1.175l1.476 1.475c-2.053 1.318-4.407 2.016-6.958 1.671-4.599-.622-8.36-4.394-10.73-8.824 1.113-2.239 2.636-4.382 4.508-6.027zm3.315-2.16a10.583 10.583 0 0 1 4.164-.934c.082 0 1.062.046 1.506.119.279.046.556.104.829.175 4.363 1.137 7.595 4.824 9.627 8.624-.852 1.721-1.969 3.401-3.3 4.841l-1.413-1.413a17.4 17.4 0 0 0 2.435-3.384s-.635-1.021-1.116-1.662a18.672 18.672 0 0 0-.977-1.197 33.949 33.949 0 0 0-1.568-1.552c-1.674-1.44-3.639-2.569-5.997-2.55a7.986 7.986 0 0 0-2.624.498l-1.563-1.563z" />
      <path
        d="m12.527 13.96 1.2 1.199a2.422 2.422 0 0 0 3.058 3.057l1.2 1.2a4.01 4.01 0 0 1-5.455-5.455zm3.424-2.051.074-.001a4.01 4.01 0 0 1 4.008 4.008v.074l-4.082-4.082z" />
    </symbol>
    <symbol id="show" viewBox="0 0 32 32">
      <path
        d="M16.256 6.963c5.287.075 9.625 4.828 11.797 8.918 0 0-.764 1.564-1.482 2.566-.347.485-.712.956-1.096 1.413-.273.325-.556.642-.849.949-2.619 2.75-6.379 4.802-10.35 4.005-4.412-.885-8.01-4.665-10.173-8.73 0 0 .768-1.566 1.489-2.566.323-.448.662-.885 1.017-1.309.272-.325.554-.641.846-.948 2.314-2.438 5.282-4.315 8.8-4.298zm-.018 2c-2.945-.011-5.394 1.633-7.332 3.675a20.135 20.135 0 0 0-1.691 2.05c-.294.409-.596.923-.836 1.361 1.907 3.204 4.77 6.099 8.291 6.805 3.282.659 6.344-1.151 8.508-3.423.265-.277.52-.564.767-.858.35-.416.683-.847 1-1.29.293-.41.595-.925.834-1.364-1.979-3.313-5.365-6.892-9.541-6.957z" />
      <path
        d="M16.079 11.974c-2.212 0-4.008 1.796-4.008 4.008s1.796 4.008 4.008 4.008c2.212 0 4.009-1.796 4.009-4.008s-1.797-4.008-4.009-4.008zm0 2.005a2.005 2.005 0 1 1 0 4.01 2.005 2.005 0 0 1 0-4.01z" />
    </symbol>
    <symbol id="question" viewBox="0 0 32 32">
      <path
        d="M10.667 9.2c0-2.5 1.913-4.533 4.267-4.533h2.133c2.353 0 4.267 2.033 4.267 4.533v.255c0 1.544-.74 2.982-1.96 3.811l-2.813 1.92c-.826.564-1.505 1.34-1.976 2.256s-.717 1.943-.717 2.986v.106c0 1.254.953 2.267 2.133 2.267s2.133-1.013 2.133-2.267v-.099c0-.581.28-1.119.733-1.431l2.813-1.92c2.44-1.672 3.92-4.54 3.92-7.629V9.2c0-5.008-3.82-9.067-8.533-9.067h-2.133c-4.713 0-8.533 4.059-8.533 9.067 0 1.254.953 2.267 2.133 2.267s2.133-1.013 2.133-2.267zM16 31.867c.707 0 1.386-.298 1.886-.83s.781-1.252.781-2.003c0-.752-.281-1.472-.781-2.003s-1.178-.83-1.886-.83-1.386.298-1.886.83c-.5.531-.781 1.252-.781 2.003s.281 1.472.781 2.003 1.178.83 1.886.83z" />
    </symbol>
    <symbol id="social" viewBox="0 0 32 32">
      <path
        d="m22.357 24.66-.805 3.005L.514 22.028l.805-3.006s1.611-6.011 12.13-3.192 8.908 8.83 8.908 8.83zM20.923 8.975a5.446 5.446 0 1 0-10.522-2.816 5.446 5.446 0 0 0 10.523 2.814zm2.954 9.65a8.272 8.272 0 0 1 1.485 6.84l-.805 3.005 6.011 1.611.805-3.006s1.462-5.455-7.496-8.451zm2.212-13.903a5.275 5.275 0 0 0-3.138.109 7.781 7.781 0 0 1-2.343 8.746 5.279 5.279 0 0 0 2.663 1.664A5.445 5.445 0 0 0 26.09 4.722z" />
    </symbol>
    <symbol id="user" viewBox="0 0 32 32">
      <path d="M16 0a8 8 0 1 1 0 16 8 8 0 0 1 0-16zm0 20c8.84 0 16 3.58 16 8v4H0v-4c0-4.42 7.16-8 16-8z" />
    </symbol>
  </defs>
</svg>